{"accessors":[{"name":"Node-Mesh_0_positions","componentType":5126,"count":10090,"min":[-0.27295899391174316,0,-0.3003250062465668],"max":[0.27295899391174316,0.9912570118904114,0.30004599690437317],"type":"VEC3","bufferView":0,"byteOffset":0},{"name":"Node-Mesh_0_texcoords","componentType":5126,"count":10090,"min":[0.0020000000949949026,0.0020000000949949026],"max":[0.9485999941825867,0.9980000257492065],"type":"VEC2","bufferView":1,"byteOffset":0},{"name":"Node-Mesh_0_indices","componentType":5123,"count":28992,"min":[0],"max":[10089],"type":"SCALAR","bufferView":2,"byteOffset":0}],"asset":{"generator":"obj2gltf","version":"2.0"},"buffers":[{"name":"0fb0494a-7124-462c-865f-22b33eac8329","byteLength":1244608,"uri":"data:application/octet-stream;base64,"}],"bufferViews":[{"name":"bufferView_0","buffer":0,"byteLength":121080,"byteOffset":0,"byteStride":12,"target":34962},{"name":"bufferView_1","buffer":0,"byteLength":80720,"byteOffset":121080,"byteStride":8,"target":34962},{"name":"bufferView_2","buffer":0,"byteLength":57984,"byteOffset":201800,"target":34963},{"buffer":0,"byteOffset":259784,"byteLength":984823}],"images":[{"name":"0fb0494a-7124-462c-865f-22b33eac8329","mimeType":"image/png","bufferView":3}],"materials":[{"name":"a","pbrMetallicRoughness":{"baseColorTexture":{"index":0},"baseColorFactor":[1,1,1,1],"metallicFactor":0,"roughnessFactor":1},"emissiveFactor":[0,0,0],"alphaMode":"OPAQUE","doubleSided":false}],"meshes":[{"name":"Node-Mesh","primitives":[{"attributes":{"POSITION":0,"TEXCOORD_0":1},"indices":2,"material":0,"mode":4}]}],"nodes":[{"name":"Node","mesh":0}],"samplers":[{"wrapS":10497,"wrapT":10497}],"scene":0,"scenes":[{"nodes":[0]}],"textures":[{"name":"0fb0494a-7124-462c-865f-22b33eac8329","sampler":0,"source":0}]}