{"accessors":[{"name":"Node-Mesh_0_positions","componentType":5126,"count":8679,"min":[-0.32079800963401794,0.00028199999360367656,-0.24479399621486664],"max":[0.32079800963401794,0.5691369771957397,0.24479399621486664],"type":"VEC3","bufferView":0,"byteOffset":0},{"name":"Node-Mesh_0_texcoords","componentType":5126,"count":8679,"min":[0.0020000000949949026,0.002099999925121665],"max":[0.9980000257492065,0.9980000257492065],"type":"VEC2","bufferView":1,"byteOffset":0},{"name":"Node-Mesh_0_indices","componentType":5123,"count":26088,"min":[0],"max":[8678],"type":"SCALAR","bufferView":2,"byteOffset":0}],"asset":{"generator":"obj2gltf","version":"2.0"},"buffers":[{"name":"2dc16a6b-7c28-42b6-a5e7-b664a3480a45","byteLength":1107984,"uri":"data:application/octet-stream;base64,"}],"bufferViews":[{"name":"bufferView_0","buffer":0,"byteLength":104148,"byteOffset":0,"byteStride":12,"target":34962},{"name":"bufferView_1","buffer":0,"byteLength":69432,"byteOffset":104148,"byteStride":8,"target":34962},{"name":"bufferView_2","buffer":0,"byteLength":52176,"byteOffset":173580,"target":34963},{"buffer":0,"byteOffset":225756,"byteLength":882225}],"images":[{"name":"2dc16a6b-7c28-42b6-a5e7-b664a3480a45","mimeType":"image/png","bufferView":3}],"materials":[{"name":"a","pbrMetallicRoughness":{"baseColorTexture":{"index":0},"baseColorFactor":[1,1,1,1],"metallicFactor":0,"roughnessFactor":1},"emissiveFactor":[0,0,0],"alphaMode":"OPAQUE","doubleSided":false}],"meshes":[{"name":"Node-Mesh","primitives":[{"attributes":{"POSITION":0,"TEXCOORD_0":1},"indices":2,"material":0,"mode":4}]}],"nodes":[{"name":"Node","mesh":0}],"samplers":[{"wrapS":10497,"wrapT":10497}],"scene":0,"scenes":[{"nodes":[0]}],"textures":[{"name":"2dc16a6b-7c28-42b6-a5e7-b664a3480a45","sampler":0,"source":0}]}