{"accessors":[{"name":"Node-Mesh_0_positions","componentType":5126,"count":22836,"min":[-0.43872401118278503,0,-0.43874499201774597],"max":[0.43872401118278503,0.8772600293159485,0.43874499201774597],"type":"VEC3","bufferView":0,"byteOffset":0},{"name":"Node-Mesh_0_texcoords","componentType":5126,"count":22836,"min":[0.0020000000949949026,0.0020000000949949026],"max":[0.9980000257492065,0.9980000257492065],"type":"VEC2","bufferView":1,"byteOffset":0},{"name":"Node-Mesh_0_indices","componentType":5123,"count":61350,"min":[0],"max":[22835],"type":"SCALAR","bufferView":2,"byteOffset":0}],"asset":{"generator":"obj2gltf","version":"2.0"},"buffers":[{"name":"3b92b678-a005-40aa-af39-8d5ec22dd0d1","byteLength":2162456,"uri":"data:application/octet-stream;base64,"}],"bufferViews":[{"name":"bufferView_0","buffer":0,"byteLength":274032,"byteOffset":0,"byteStride":12,"target":34962},{"name":"bufferView_1","buffer":0,"byteLength":182688,"byteOffset":274032,"byteStride":8,"target":34962},{"name":"bufferView_2","buffer":0,"byteLength":122700,"byteOffset":456720,"target":34963},{"buffer":0,"byteOffset":579420,"byteLength":1583036}],"images":[{"name":"3b92b678-a005-40aa-af39-8d5ec22dd0d1","mimeType":"image/png","bufferView":3}],"materials":[{"name":"a","pbrMetallicRoughness":{"baseColorTexture":{"index":0},"baseColorFactor":[1,1,1,1],"metallicFactor":0,"roughnessFactor":1},"emissiveFactor":[0,0,0],"alphaMode":"OPAQUE","doubleSided":false}],"meshes":[{"name":"Node-Mesh","primitives":[{"attributes":{"POSITION":0,"TEXCOORD_0":1},"indices":2,"material":0,"mode":4}]}],"nodes":[{"name":"Node","mesh":0}],"samplers":[{"wrapS":10497,"wrapT":10497}],"scene":0,"scenes":[{"nodes":[0]}],"textures":[{"name":"3b92b678-a005-40aa-af39-8d5ec22dd0d1","sampler":0,"source":0}]}