{
    "accessors": [
        {
            "name": "Node-Mesh_0_positions",
            "componentType": 5126,
            "count": 19766,
            "min": [
                -0.29391399025917053,
                -0.000048999998398358,
                -0.2929069995880127
            ],
            "max": [
                0.29388800263404846,
                1.0824099779129028,
                0.2929059863090515
            ],
            "type": "VEC3",
            "bufferView": 0,
            "byteOffset": 0
        },
        {
            "name": "Node-Mesh_0_texcoords",
            "componentType": 5126,
            "count": 19766,
            "min": [
                0.00008099999831756577,
                0.08156999945640564
            ],
            "max": [
                0.9969589710235596,
                0.9997789859771729
            ],
            "type": "VEC2",
            "bufferView": 1,
            "byteOffset": 0
        },
        {
            "name": "Node-Mesh_0_indices",
            "componentType": 5123,
            "count": 48960,
            "min": [
                0
            ],
            "max": [
                19765
            ],
            "type": "SCALAR",
            "bufferView": 2,
            "byteOffset": 0
        }
    ],
    "asset": {
        "generator": "obj2gltf",
        "version": "2.0"
    },
    "buffers": [
        {
            "name": "48fe0333-9c9a-47d2-938a-b093a29af8d1",
            "byteLength": 1210612,
            "uri": "data:application/octet-stream;base64,"
        }
    ],
    "bufferViews": [
        {
            "name": "bufferView_0",
            "buffer": 0,
            "byteLength": 237192,
            "byteOffset": 0,
            "byteStride": 12,
            "target": 34962
        },
        {
            "name": "bufferView_1",
            "buffer": 0,
            "byteLength": 158128,
            "byteOffset": 237192,
            "byteStride": 8,
            "target": 34962
        },
        {
            "name": "bufferView_2",
            "buffer": 0,
            "byteLength": 97920,
            "byteOffset": 395320,
            "target": 34963
        },
        {
            "buffer": 0,
            "byteOffset": 493240,
            "byteLength": 717372
        }
    ],
    "images": [
        {
            "name": "48fe0333-9c9a-47d2-938a-b093a29af8d1",
            "mimeType": "image/png",
            "bufferView": 3
        }
    ],
    "materials": [
        {
            "name": "a",
            "pbrMetallicRoughness": {
                "baseColorTexture": {
                    "index": 0
                },
                "baseColorFactor": [
                    1,
                    1,
                    1,
                    1
                ],
                "metallicFactor": 0,
                "roughnessFactor": 1
            },
            "emissiveFactor": [
                0,
                0,
                0
            ],
            "alphaMode": "OPAQUE",
            "doubleSided": false
        }
    ],
    "meshes": [
        {
            "name": "Node-Mesh",
            "primitives": [
                {
                    "attributes": {
                        "POSITION": 0,
                        "TEXCOORD_0": 1
                    },
                    "indices": 2,
                    "material": 0,
                    "mode": 4
                }
            ]
        }
    ],
    "nodes": [
        {
            "name": "Node",
            "mesh": 0
        }
    ],
    "samplers": [
        {
            "wrapS": 10497,
            "wrapT": 10497
        }
    ],
    "scene": 0,
    "scenes": [
        {
            "nodes": [
                0
            ]
        }
    ],
    "textures": [
        {
            "name": "48fe0333-9c9a-47d2-938a-b093a29af8d1",
            "sampler": 0,
            "source": 0
        }
    ]
}