{"accessors":[{"name":"Node-Mesh_0_positions","componentType":5126,"count":11914,"min":[-0.9569159746170044,0.000018999999156221747,-0.20368699729442596],"max":[0.9569159746170044,0.43873101472854614,0.20367500185966492],"type":"VEC3","bufferView":0,"byteOffset":0},{"name":"Node-Mesh_0_texcoords","componentType":5126,"count":11914,"min":[0.0020000000949949026,0.0020000000949949026],"max":[0.9980000257492065,0.9980000257492065],"type":"VEC2","bufferView":1,"byteOffset":0},{"name":"Node-Mesh_0_indices","componentType":5123,"count":33651,"min":[0],"max":[11913],"type":"SCALAR","bufferView":2,"byteOffset":0}],"asset":{"generator":"obj2gltf","version":"2.0"},"buffers":[{"name":"55f0601e-a5eb-41be-a096-5b60aee05622","byteLength":1353204,"uri":"data:application/octet-stream;base64,"}],"bufferViews":[{"name":"bufferView_0","buffer":0,"byteLength":142968,"byteOffset":0,"byteStride":12,"target":34962},{"name":"bufferView_1","buffer":0,"byteLength":95312,"byteOffset":142968,"byteStride":8,"target":34962},{"name":"bufferView_2","buffer":0,"byteLength":67304,"byteOffset":238280,"target":34963},{"buffer":0,"byteOffset":305584,"byteLength":1047617}],"images":[{"name":"55f0601e-a5eb-41be-a096-5b60aee05622","mimeType":"image/png","bufferView":3}],"materials":[{"name":"a","pbrMetallicRoughness":{"baseColorTexture":{"index":0},"baseColorFactor":[1,1,1,1],"metallicFactor":0,"roughnessFactor":1},"emissiveFactor":[0,0,0],"alphaMode":"OPAQUE","doubleSided":false}],"meshes":[{"name":"Node-Mesh","primitives":[{"attributes":{"POSITION":0,"TEXCOORD_0":1},"indices":2,"material":0,"mode":4}]}],"nodes":[{"name":"Node","mesh":0}],"samplers":[{"wrapS":10497,"wrapT":10497}],"scene":0,"scenes":[{"nodes":[0]}],"textures":[{"name":"55f0601e-a5eb-41be-a096-5b60aee05622","sampler":0,"source":0}]}