{"accessors":[{"name":"Node-Mesh_0_positions","componentType":5126,"count":624,"min":[-0.23999999463558197,0,-0.13199999928474426],"max":[0.23999999463558197,2.5,0.13199999928474426],"type":"VEC3","bufferView":0,"byteOffset":0},{"name":"Node-Mesh_0_texcoords","componentType":5126,"count":624,"min":[0.0020000000949949026,0.11320000141859055],"max":[0.9980000257492065,0.9980000257492065],"type":"VEC2","bufferView":1,"byteOffset":0},{"name":"Node-Mesh_0_indices","componentType":5123,"count":1992,"min":[0],"max":[623],"type":"SCALAR","bufferView":2,"byteOffset":0}],"asset":{"generator":"obj2gltf","version":"2.0"},"buffers":[{"name":"63c2f8e2-08fb-41cb-bbcb-7e11ef5574ee","byteLength":605544,"uri":"data:application/octet-stream;base64,"}],"bufferViews":[{"name":"bufferView_0","buffer":0,"byteLength":7488,"byteOffset":0,"byteStride":12,"target":34962},{"name":"bufferView_1","buffer":0,"byteLength":4992,"byteOffset":7488,"byteStride":8,"target":34962},{"name":"bufferView_2","buffer":0,"byteLength":3984,"byteOffset":12480,"target":34963},{"buffer":0,"byteOffset":16464,"byteLength":589079}],"images":[{"name":"63c2f8e2-08fb-41cb-bbcb-7e11ef5574ee","mimeType":"image/png","bufferView":3}],"materials":[{"name":"a","pbrMetallicRoughness":{"baseColorTexture":{"index":0},"baseColorFactor":[1,1,1,1],"metallicFactor":0,"roughnessFactor":1},"emissiveFactor":[0,0,0],"alphaMode":"OPAQUE","doubleSided":false}],"meshes":[{"name":"Node-Mesh","primitives":[{"attributes":{"POSITION":0,"TEXCOORD_0":1},"indices":2,"material":0,"mode":4}]}],"nodes":[{"name":"Node","mesh":0}],"samplers":[{"wrapS":10497,"wrapT":10497}],"scene":0,"scenes":[{"nodes":[0]}],"textures":[{"name":"63c2f8e2-08fb-41cb-bbcb-7e11ef5574ee","sampler":0,"source":0}]}