{"accessors":[{"name":"Node-Mesh_0_positions","componentType":5126,"count":50999,"min":[-0.6325719952583313,-0.0012619999470189214,-1.1292799711227417],"max":[0.6309930086135864,0.8924239873886108,1.1292799711227417],"type":"VEC3","bufferView":0,"byteOffset":0},{"name":"Node-Mesh_0_texcoords","componentType":5126,"count":50999,"min":[0.000003000000106112566,0.0012629999546334147],"max":[0.9988369941711426,0.9999430179595947],"type":"VEC2","bufferView":1,"byteOffset":0},{"name":"Node-Mesh_0_indices","componentType":5123,"count":103353,"min":[0],"max":[50998],"type":"SCALAR","bufferView":2,"byteOffset":0}],"asset":{"generator":"obj2gltf","version":"2.0"},"buffers":[{"name":"69a2550c-ec04-44d9-a621-e601330a9cb6","byteLength":2851640,"uri":"data:application/octet-stream;base64,"}],"bufferViews":[{"name":"bufferView_0","buffer":0,"byteLength":611988,"byteOffset":0,"byteStride":12,"target":34962},{"name":"bufferView_1","buffer":0,"byteLength":407992,"byteOffset":611988,"byteStride":8,"target":34962},{"name":"bufferView_2","buffer":0,"byteLength":206708,"byteOffset":1019980,"target":34963},{"buffer":0,"byteOffset":1226688,"byteLength":1624951}],"images":[{"name":"69a2550c-ec04-44d9-a621-e601330a9cb6","mimeType":"image/png","bufferView":3}],"materials":[{"name":"a","pbrMetallicRoughness":{"baseColorTexture":{"index":0},"baseColorFactor":[1,1,1,1],"metallicFactor":0,"roughnessFactor":1},"emissiveFactor":[0,0,0],"alphaMode":"OPAQUE","doubleSided":false}],"meshes":[{"name":"Node-Mesh","primitives":[{"attributes":{"POSITION":0,"TEXCOORD_0":1},"indices":2,"material":0,"mode":4}]}],"nodes":[{"name":"Node","mesh":0}],"samplers":[{"wrapS":10497,"wrapT":10497}],"scene":0,"scenes":[{"nodes":[0]}],"textures":[{"name":"69a2550c-ec04-44d9-a621-e601330a9cb6","sampler":0,"source":0}]}