{"accessors":[{"name":"Node-Mesh_0_positions","componentType":5126,"count":4884,"min":[-0.27981099486351013,0,-0.2090200036764145],"max":[0.2794339954853058,0.5688890218734741,0.20903100073337555],"type":"VEC3","bufferView":0,"byteOffset":0},{"name":"Node-Mesh_0_texcoords","componentType":5126,"count":4884,"min":[0.00009000000136438757,0.0009629999985918403],"max":[0.9332399964332581,0.999796986579895],"type":"VEC2","bufferView":1,"byteOffset":0},{"name":"Node-Mesh_0_indices","componentType":5123,"count":16257,"min":[0],"max":[4883],"type":"SCALAR","bufferView":2,"byteOffset":0}],"asset":{"generator":"obj2gltf","version":"2.0"},"buffers":[{"name":"b9237c75-6b5b-4c0f-a776-5ab036c5fb22","byteLength":1153772,"uri":"data:application/octet-stream;base64,"}],"bufferViews":[{"name":"bufferView_0","buffer":0,"byteLength":58608,"byteOffset":0,"byteStride":12,"target":34962},{"name":"bufferView_1","buffer":0,"byteLength":39072,"byteOffset":58608,"byteStride":8,"target":34962},{"name":"bufferView_2","buffer":0,"byteLength":32516,"byteOffset":97680,"target":34963},{"buffer":0,"byteOffset":130196,"byteLength":1023574}],"images":[{"name":"b9237c75-6b5b-4c0f-a776-5ab036c5fb22","mimeType":"image/png","bufferView":3}],"materials":[{"name":"a","pbrMetallicRoughness":{"baseColorTexture":{"index":0},"baseColorFactor":[1,1,1,1],"metallicFactor":0,"roughnessFactor":1},"emissiveFactor":[0,0,0],"alphaMode":"OPAQUE","doubleSided":false}],"meshes":[{"name":"Node-Mesh","primitives":[{"attributes":{"POSITION":0,"TEXCOORD_0":1},"indices":2,"material":0,"mode":4}]}],"nodes":[{"name":"Node","mesh":0}],"samplers":[{"wrapS":10497,"wrapT":10497}],"scene":0,"scenes":[{"nodes":[0]}],"textures":[{"name":"b9237c75-6b5b-4c0f-a776-5ab036c5fb22","sampler":0,"source":0}]}