{
    "accessors": [
        {
            "name": "Node-Mesh_0_positions",
            "componentType": 5126,
            "count": 14638,
            "min": [
                -0.8850629925727844,
                0,
                -0.4693340063095093
            ],
            "max": [
                0.8850399851799011,
                0.935172975063324,
                0.46924299001693726
            ],
            "type": "VEC3",
            "bufferView": 0,
            "byteOffset": 0
        },
        {
            "name": "Node-Mesh_0_texcoords",
            "componentType": 5126,
            "count": 14638,
            "min": [
                0.0020000000949949026,
                0.002199999988079071
            ],
            "max": [
                0.9980000257492065,
                0.9980000257492065
            ],
            "type": "VEC2",
            "bufferView": 1,
            "byteOffset": 0
        },
        {
            "name": "Node-Mesh_0_indices",
            "componentType": 5123,
            "count": 49245,
            "min": [
                0
            ],
            "max": [
                14637
            ],
            "type": "SCALAR",
            "bufferView": 2,
            "byteOffset": 0
        }
    ],
    "asset": {
        "generator": "obj2gltf",
        "version": "2.0"
    },
    "buffers": [
        {
            "name": "be4cdd72-5566-4e84-9023-ae8a2f2d603b",
            "byteLength": 1567544,
            "uri": "data:application/octet-stream;base64,"
        }
    ],
    "bufferViews": [
        {
            "name": "bufferView_0",
            "buffer": 0,
            "byteLength": 175656,
            "byteOffset": 0,
            "byteStride": 12,
            "target": 34962
        },
        {
            "name": "bufferView_1",
            "buffer": 0,
            "byteLength": 117104,
            "byteOffset": 175656,
            "byteStride": 8,
            "target": 34962
        },
        {
            "name": "bufferView_2",
            "buffer": 0,
            "byteLength": 98492,
            "byteOffset": 292760,
            "target": 34963
        },
        {
            "buffer": 0,
            "byteOffset": 391252,
            "byteLength": 1176291
        }
    ],
    "images": [
        {
            "name": "be4cdd72-5566-4e84-9023-ae8a2f2d603b",
            "mimeType": "image/png",
            "bufferView": 3
        }
    ],
    "materials": [
        {
            "name": "a",
            "pbrMetallicRoughness": {
                "baseColorTexture": {
                    "index": 0
                },
                "baseColorFactor": [
                    1,
                    1,
                    1,
                    1
                ],
                "metallicFactor": 0,
                "roughnessFactor": 1
            },
            "emissiveFactor": [
                0,
                0,
                0
            ],
            "alphaMode": "OPAQUE",
            "doubleSided": false
        }
    ],
    "meshes": [
        {
            "name": "Node-Mesh",
            "primitives": [
                {
                    "attributes": {
                        "POSITION": 0,
                        "TEXCOORD_0": 1
                    },
                    "indices": 2,
                    "material": 0,
                    "mode": 4
                }
            ]
        }
    ],
    "nodes": [
        {
            "name": "Node",
            "mesh": 0
        }
    ],
    "samplers": [
        {
            "wrapS": 10497,
            "wrapT": 10497
        }
    ],
    "scene": 0,
    "scenes": [
        {
            "nodes": [
                0
            ]
        }
    ],
    "textures": [
        {
            "name": "be4cdd72-5566-4e84-9023-ae8a2f2d603b",
            "sampler": 0,
            "source": 0
        }
    ]
}