{"accessors":[{"name":"Node-Mesh_0_positions","componentType":5126,"count":34583,"min":[-0.6868640184402466,0,-0.443246990442276],"max":[0.685375988483429,0.4883100092411041,0.44326600432395935],"type":"VEC3","bufferView":0,"byteOffset":0},{"name":"Node-Mesh_0_texcoords","componentType":5126,"count":34583,"min":[0.0020000000949949026,0.0020000000949949026],"max":[0.9980000257492065,0.9980000257492065],"type":"VEC2","bufferView":1,"byteOffset":0},{"name":"Node-Mesh_0_indices","componentType":5123,"count":67563,"min":[0],"max":[34582],"type":"SCALAR","bufferView":2,"byteOffset":0}],"asset":{"generator":"obj2gltf","version":"2.0"},"buffers":[{"name":"de61b6bd-123c-41e4-b59e-da89bb2f200c","byteLength":2337948,"uri":"data:application/octet-stream;base64,"}],"bufferViews":[{"name":"bufferView_0","buffer":0,"byteLength":414996,"byteOffset":0,"byteStride":12,"target":34962},{"name":"bufferView_1","buffer":0,"byteLength":276664,"byteOffset":414996,"byteStride":8,"target":34962},{"name":"bufferView_2","buffer":0,"byteLength":135128,"byteOffset":691660,"target":34963},{"buffer":0,"byteOffset":826788,"byteLength":1511157}],"images":[{"name":"de61b6bd-123c-41e4-b59e-da89bb2f200c","mimeType":"image/png","bufferView":3}],"materials":[{"name":"a","pbrMetallicRoughness":{"baseColorTexture":{"index":0},"baseColorFactor":[1,1,1,1],"metallicFactor":0,"roughnessFactor":1},"emissiveFactor":[0,0,0],"alphaMode":"OPAQUE","doubleSided":false}],"meshes":[{"name":"Node-Mesh","primitives":[{"attributes":{"POSITION":0,"TEXCOORD_0":1},"indices":2,"material":0,"mode":4}]}],"nodes":[{"name":"Node","mesh":0}],"samplers":[{"wrapS":10497,"wrapT":10497}],"scene":0,"scenes":[{"nodes":[0]}],"textures":[{"name":"de61b6bd-123c-41e4-b59e-da89bb2f200c","sampler":0,"source":0}]}