{"accessors":[{"name":"Node-Mesh_0_positions","componentType":5126,"count":20076,"min":[-0.7645490169525146,0,-0.4026919901371002],"max":[0.7647290229797363,0.7775220274925232,0.40285399556159973],"type":"VEC3","bufferView":0,"byteOffset":0},{"name":"Node-Mesh_0_texcoords","componentType":5126,"count":20076,"min":[0.0020000000949949026,0.0020000000949949026],"max":[0.9980000257492065,0.9980000257492065],"type":"VEC2","bufferView":1,"byteOffset":0},{"name":"Node-Mesh_0_indices","componentType":5123,"count":41757,"min":[0],"max":[20075],"type":"SCALAR","bufferView":2,"byteOffset":0}],"asset":{"generator":"obj2gltf","version":"2.0"},"buffers":[{"name":"f9ed40f0-ee1a-4f71-a41b-ad79e76cdff0","byteLength":2298304,"uri":"data:application/octet-stream;base64,"}],"bufferViews":[{"name":"bufferView_0","buffer":0,"byteLength":240912,"byteOffset":0,"byteStride":12,"target":34962},{"name":"bufferView_1","buffer":0,"byteLength":160608,"byteOffset":240912,"byteStride":8,"target":34962},{"name":"bufferView_2","buffer":0,"byteLength":83516,"byteOffset":401520,"target":34963},{"buffer":0,"byteOffset":485036,"byteLength":1813267}],"images":[{"name":"f9ed40f0-ee1a-4f71-a41b-ad79e76cdff0","mimeType":"image/png","bufferView":3}],"materials":[{"name":"a","pbrMetallicRoughness":{"baseColorTexture":{"index":0},"baseColorFactor":[1,1,1,1],"metallicFactor":0,"roughnessFactor":1},"emissiveFactor":[0,0,0],"alphaMode":"OPAQUE","doubleSided":false}],"meshes":[{"name":"Node-Mesh","primitives":[{"attributes":{"POSITION":0,"TEXCOORD_0":1},"indices":2,"material":0,"mode":4}]}],"nodes":[{"name":"Node","mesh":0}],"samplers":[{"wrapS":10497,"wrapT":10497}],"scene":0,"scenes":[{"nodes":[0]}],"textures":[{"name":"f9ed40f0-ee1a-4f71-a41b-ad79e76cdff0","sampler":0,"source":0}]}